<svg width="360" height="235" viewBox="0 0 360 235" fill="none" xmlns="http://www.w3.org/2000/svg">
<path opacity="0.75" d="M202.597 49.0909H95.584V81.8182H202.597V49.0909Z" fill="#F42534"/>
<path opacity="0.75" d="M305.454 49.0909H207.272V81.8182H305.454V49.0909Z" fill="#39B54A"/>
<path d="M307.792 2.59741H2.59717V197.143H307.792V2.59741Z" stroke="#6D6E71" stroke-width="5.19481" stroke-miterlimit="10"/>
<path d="M23.8959 2.59741H2.59717V197.143H23.8959V2.59741Z" fill="#D1D3D4" stroke="#6D6E71" stroke-width="5.19481" stroke-miterlimit="10"/>
<path d="M13.2465 19.7402C16.259 19.7402 18.7011 17.2982 18.7011 14.2857C18.7011 11.2732 16.259 8.83115 13.2465 8.83115C10.2341 8.83115 7.79199 11.2732 7.79199 14.2857C7.79199 17.2982 10.2341 19.7402 13.2465 19.7402Z" fill="#6D6E71"/>
<path d="M13.2465 41.039C16.259 41.039 18.7011 38.5969 18.7011 35.5844C18.7011 32.572 16.259 30.1299 13.2465 30.1299C10.2341 30.1299 7.79199 32.572 7.79199 35.5844C7.79199 38.5969 10.2341 41.039 13.2465 41.039Z" fill="#6D6E71"/>
<path d="M13.2465 62.0779C16.259 62.0779 18.7011 59.6359 18.7011 56.6234C18.7011 53.6109 16.259 51.1689 13.2465 51.1689C10.2341 51.1689 7.79199 53.6109 7.79199 56.6234C7.79199 59.6359 10.2341 62.0779 13.2465 62.0779Z" fill="#6D6E71"/>
<path d="M13.2465 83.1169C16.259 83.1169 18.7011 80.6748 18.7011 77.6623C18.7011 74.6498 16.259 72.2078 13.2465 72.2078C10.2341 72.2078 7.79199 74.6498 7.79199 77.6623C7.79199 80.6748 10.2341 83.1169 13.2465 83.1169Z" fill="#6D6E71"/>
<path d="M119.221 26.7532H136.623" stroke="#00AEEF" stroke-width="5.19481" stroke-miterlimit="10"/>
<path d="M123.376 42.3376H138.441" stroke="#58595B" stroke-width="5.19481" stroke-miterlimit="10"/>
<path d="M123.376 58.1818H179.48" stroke="#58595B" stroke-width="5.19481" stroke-miterlimit="10"/>
<path d="M129.87 89.3506H200.519" stroke="#58595B" stroke-width="5.19481" stroke-miterlimit="10"/>
<path d="M134.545 104.935H181.818" stroke="#58595B" stroke-width="5.19481" stroke-miterlimit="10"/>
<path d="M123.376 73.7662H181.818" stroke="#58595B" stroke-width="5.19481" stroke-miterlimit="10"/>
<path d="M212.727 26.7532H230.13" stroke="#00AEEF" stroke-width="5.19481" stroke-miterlimit="10"/>
<path d="M217.143 42.3376H231.948" stroke="#58595B" stroke-width="5.19481" stroke-miterlimit="10"/>
<path d="M217.143 58.1818H288.312" stroke="#58595B" stroke-width="5.19481" stroke-miterlimit="10"/>
<path d="M223.637 89.3506H294.286" stroke="#58595B" stroke-width="5.19481" stroke-miterlimit="10"/>
<path d="M228.312 104.935H275.325" stroke="#58595B" stroke-width="5.19481" stroke-miterlimit="10"/>
<path d="M217.143 73.7662H247.013" stroke="#58595B" stroke-width="5.19481" stroke-miterlimit="10"/>
<path d="M93.7666 2.59741H23.8965V197.143H93.7666V2.59741Z" fill="#D1D3D4" stroke="#6D6E71" stroke-width="5.19481" stroke-miterlimit="10"/>
<path d="M93.7666 7.27271H23.8965V21.0389H93.7666V7.27271Z" stroke="#6D6E71" stroke-width="5.19481" stroke-miterlimit="10"/>
<path d="M93.7666 21.2987H23.8965V53.5065H93.7666V21.2987Z" stroke="#6D6E71" stroke-width="5.19481" stroke-miterlimit="10"/>
<path d="M32.2075 14.2857H56.6231" stroke="#58595B" stroke-width="5.19481" stroke-miterlimit="10"/>
<path d="M40.5195 60.5194H74.8052" stroke="#58595B" stroke-width="5.19481" stroke-miterlimit="10"/>
<path d="M40.5195 68.8312H74.8052" stroke="#58595B" stroke-width="5.19481" stroke-miterlimit="10"/>
<path d="M40.5195 77.4026H74.8052" stroke="#58595B" stroke-width="5.19481" stroke-miterlimit="10"/>
<path d="M40.5195 85.7143H74.8052" stroke="#58595B" stroke-width="5.19481" stroke-miterlimit="10"/>
<path d="M40.5195 94.2857H74.8052" stroke="#58595B" stroke-width="5.19481" stroke-miterlimit="10"/>
<path d="M40.5195 102.597H74.8052" stroke="#58595B" stroke-width="5.19481" stroke-miterlimit="10"/>
<path d="M31.6885 60.5194H37.143" stroke="#00A651" stroke-width="5.19481" stroke-miterlimit="10"/>
<path d="M31.6885 68.8312H37.143" stroke="#00A651" stroke-width="5.19481" stroke-miterlimit="10"/>
<path d="M31.6885 77.4026H37.143" stroke="#00A651" stroke-width="5.19481" stroke-miterlimit="10"/>
<path d="M31.6885 85.7143H37.143" stroke="#7F3F98" stroke-width="5.19481" stroke-miterlimit="10"/>
<path d="M31.6885 94.2857H37.143" stroke="#7F3F98" stroke-width="5.19481" stroke-miterlimit="10"/>
<path d="M31.6885 102.597H37.143" stroke="#F42534" stroke-width="5.19481" stroke-miterlimit="10"/>
<path d="M40.5195 30.1299H74.8052" stroke="#58595B" stroke-width="5.19481" stroke-miterlimit="10"/>
<path d="M40.5195 38.4416H74.8052" stroke="#58595B" stroke-width="5.19481" stroke-miterlimit="10"/>
<path d="M40.5195 47.013H74.8052" stroke="#58595B" stroke-width="5.19481" stroke-miterlimit="10"/>
<path d="M31.6885 30.1299H37.143" stroke="#00A651" stroke-width="5.19481" stroke-miterlimit="10"/>
<path d="M31.6885 38.4416H37.143" stroke="#00A651" stroke-width="5.19481" stroke-miterlimit="10"/>
<path d="M31.6885 47.013H37.143" stroke="#00A651" stroke-width="5.19481" stroke-miterlimit="10"/>
<path d="M204.675 2.59741V197.143" stroke="#6D6E71" stroke-width="5.19481" stroke-miterlimit="10"/>
<path d="M264 117C264 143.51 285.49 165 312 165C338.51 165 360 143.51 360 117C360 90.4903 338.51 69 312 69C285.49 69 264 90.4903 264 117Z" fill="#F42534"/>
<path d="M336.001 107C336.01 105.143 335.502 103.321 334.535 101.737C333.567 100.152 332.177 98.8686 330.521 98.0295C328.865 97.1904 327.008 96.8288 325.158 96.9854C323.308 97.142 321.538 97.8105 320.046 98.916C318.555 100.022 317.4 101.521 316.713 103.245C316.025 104.969 315.831 106.851 316.152 108.68C316.473 110.509 317.297 112.212 318.531 113.598C319.766 114.985 321.362 116.001 323.141 116.532C322.484 117.867 321.468 118.992 320.206 119.782C318.945 120.571 317.489 120.993 316.001 121H308.001C305.039 121.01 302.188 122.123 300.001 124.12V104.796C302.429 104.3 304.586 102.921 306.055 100.925C307.524 98.9289 308.199 96.4586 307.95 93.993C307.701 91.5274 306.545 89.2421 304.707 87.5802C302.869 85.9182 300.479 84.9981 298.001 84.9981C295.523 84.9981 293.133 85.9182 291.295 87.5802C289.456 89.2421 288.301 91.5274 288.051 93.993C287.802 96.4586 288.478 98.9289 289.946 100.925C291.415 102.921 293.573 104.3 296.001 104.796V129.196C293.577 129.66 291.407 130.994 289.9 132.947C288.392 134.901 287.652 137.338 287.818 139.8C287.984 142.262 289.045 144.578 290.801 146.311C292.557 148.045 294.887 149.075 297.351 149.209C299.815 149.343 302.242 148.571 304.176 147.038C306.109 145.505 307.415 143.318 307.847 140.888C308.279 138.459 307.807 135.955 306.52 133.85C305.233 131.745 303.22 130.183 300.861 129.46C301.519 128.126 302.536 127.003 303.797 126.215C305.058 125.427 306.514 125.006 308.001 125H316.001C318.497 124.988 320.927 124.199 322.953 122.741C324.979 121.284 326.5 119.231 327.305 116.868C329.702 116.553 331.905 115.379 333.504 113.565C335.102 111.751 335.99 109.418 336.001 107ZM292.001 95C292.001 93.8133 292.353 92.6533 293.012 91.6666C293.671 90.6799 294.608 89.9109 295.705 89.4568C296.801 89.0026 298.008 88.8838 299.171 89.1153C300.335 89.3468 301.404 89.9183 302.243 90.7574C303.083 91.5965 303.654 92.6656 303.886 93.8295C304.117 94.9934 303.998 96.1998 303.544 97.2961C303.09 98.3925 302.321 99.3296 301.334 99.9889C300.348 100.648 299.188 101 298.001 101C296.41 101 294.883 100.368 293.758 99.2427C292.633 98.1175 292.001 96.5913 292.001 95ZM304.001 139C304.001 140.187 303.649 141.347 302.99 142.333C302.33 143.32 301.393 144.089 300.297 144.543C299.201 144.997 297.994 145.116 296.83 144.885C295.666 144.653 294.597 144.082 293.758 143.243C292.919 142.404 292.348 141.334 292.116 140.171C291.885 139.007 292.003 137.8 292.458 136.704C292.912 135.608 293.681 134.671 294.667 134.011C295.654 133.352 296.814 133 298.001 133C299.592 133 301.118 133.632 302.243 134.757C303.369 135.883 304.001 137.409 304.001 139ZM326.001 113C324.814 113 323.654 112.648 322.667 111.989C321.681 111.33 320.912 110.392 320.458 109.296C320.003 108.2 319.885 106.993 320.116 105.829C320.348 104.666 320.919 103.597 321.758 102.757C322.597 101.918 323.666 101.347 324.83 101.115C325.994 100.884 327.201 101.003 328.297 101.457C329.393 101.911 330.33 102.68 330.99 103.667C331.649 104.653 332.001 105.813 332.001 107C332.001 108.591 331.369 110.117 330.243 111.243C329.118 112.368 327.592 113 326.001 113Z" fill="white"/>
</svg>
