<?xml version="1.0" encoding="utf-8"?>
<!-- Generator: Adobe Illustrator 24.2.0, SVG Export Plug-In . SVG Version: 6.00 Build 0)  -->
<svg version="1.1" id="Layer_1" xmlns="http://www.w3.org/2000/svg" xmlns:xlink="http://www.w3.org/1999/xlink" x="0px" y="0px"
	 viewBox="0 0 261 24" style="enable-background:new 0 0 261 24;" xml:space="preserve">
<style type="text/css">
	.st0{fill:#FFFFFF;}
	.st1{clip-path:url(#SVGID_2_);}
	.st2{fill-rule:evenodd;clip-rule:evenodd;fill:#FFFFFF;}
	.st3{fill-rule:evenodd;clip-rule:evenodd;fill:#F25022;}
	.st4{fill-rule:evenodd;clip-rule:evenodd;fill:#7FBA00;}
	.st5{fill-rule:evenodd;clip-rule:evenodd;fill:#00A4EF;}
	.st6{fill-rule:evenodd;clip-rule:evenodd;fill:#FFB900;}
</style>
<path class="st0" d="M161.8,18.2c-1.8,0-3.3-0.6-4.4-1.8c-1.1-1.2-1.6-2.7-1.6-4.6c0-2,0.6-3.6,1.7-4.9c1.1-1.2,2.6-1.8,4.5-1.8
	c1.8,0,3.2,0.6,4.3,1.8c1.1,1.2,1.6,2.7,1.6,4.6c0,2.1-0.6,3.7-1.7,4.9C165.1,17.6,163.6,18.2,161.8,18.2z M161.8,7
	c-1.2,0-2.1,0.4-2.8,1.3c-0.7,0.9-1.1,2-1.1,3.4c0,1.4,0.4,2.5,1.1,3.4c0.7,0.9,1.6,1.3,2.8,1.3c1.2,0,2.2-0.4,2.9-1.2
	c0.7-0.8,1-2,1-3.4c0-1.5-0.3-2.7-1-3.5C164,7.4,163,7,161.8,7z M172,16.7L172,16.7l0,5.5h-2V9h2v1.6h0c0.7-1.2,1.7-1.8,3.1-1.8
	c1.1,0,2,0.4,2.7,1.2c0.6,0.8,1,1.9,1,3.2c0,1.5-0.4,2.7-1.1,3.6c-0.7,0.9-1.7,1.4-3,1.4C173.5,18.2,172.6,17.7,172,16.7z M172,13.1
	v1.1c0,0.7,0.2,1.2,0.6,1.7c0.4,0.5,1,0.7,1.6,0.7c0.8,0,1.3-0.3,1.8-0.9c0.4-0.6,0.7-1.4,0.7-2.5c0-0.9-0.2-1.6-0.6-2.1
	c-0.4-0.5-0.9-0.8-1.6-0.8c-0.7,0-1.3,0.3-1.8,0.8C172.2,11.7,172,12.3,172,13.1z M188.4,14.1h-6.1c0,0.8,0.3,1.5,0.8,1.9
	c0.5,0.5,1.2,0.7,2,0.7c1,0,1.8-0.3,2.6-0.9v1.6c-0.8,0.5-1.9,0.8-3.3,0.8c-1.3,0-2.4-0.4-3.1-1.2c-0.8-0.8-1.1-2-1.1-3.5
	c0-1.4,0.4-2.5,1.2-3.4c0.8-0.9,1.9-1.3,3.1-1.3c1.2,0,2.2,0.4,2.9,1.2c0.7,0.8,1,1.9,1,3.3V14.1z M186.4,12.6
	c0-0.7-0.2-1.3-0.5-1.7c-0.3-0.4-0.8-0.6-1.4-0.6c-0.6,0-1.1,0.2-1.5,0.6c-0.4,0.4-0.7,1-0.7,1.7H186.4z M198.4,18h-2v-5.1
	c0-1.7-0.6-2.5-1.8-2.5c-0.6,0-1.1,0.2-1.5,0.7c-0.4,0.5-0.6,1-0.6,1.8V18h-2V9h2v1.5h0c0.7-1.1,1.6-1.7,2.9-1.7c1,0,1.7,0.3,2.2,1
	c0.5,0.6,0.8,1.5,0.8,2.8V18z M205.5,17.5v-2.2c0.2,0.2,0.4,0.3,0.7,0.5c0.3,0.1,0.6,0.3,0.9,0.4c0.3,0.1,0.6,0.2,0.9,0.2
	c0.3,0.1,0.6,0.1,0.8,0.1c0.9,0,1.5-0.1,2-0.4c0.4-0.3,0.6-0.7,0.6-1.3c0-0.3-0.1-0.6-0.2-0.8c-0.1-0.2-0.3-0.4-0.6-0.6
	c-0.3-0.2-0.6-0.4-0.9-0.5c-0.3-0.2-0.7-0.3-1.1-0.5c-0.4-0.2-0.8-0.5-1.2-0.7c-0.4-0.2-0.7-0.5-1-0.8c-0.3-0.3-0.5-0.6-0.6-1
	c-0.2-0.4-0.2-0.8-0.2-1.3c0-0.6,0.1-1.1,0.4-1.5c0.3-0.4,0.6-0.8,1.1-1.1c0.4-0.3,0.9-0.5,1.5-0.6c0.6-0.1,1.1-0.2,1.7-0.2
	c1.3,0,2.3,0.1,2.9,0.4v2.1c-0.7-0.5-1.6-0.8-2.8-0.8c-0.3,0-0.6,0-0.9,0.1c-0.3,0.1-0.6,0.2-0.8,0.3c-0.2,0.1-0.4,0.3-0.6,0.5
	c-0.2,0.2-0.2,0.5-0.2,0.8c0,0.3,0.1,0.5,0.2,0.7c0.1,0.2,0.3,0.4,0.5,0.6c0.2,0.2,0.5,0.3,0.8,0.5c0.3,0.2,0.7,0.3,1.1,0.5
	c0.4,0.2,0.9,0.5,1.2,0.7c0.4,0.3,0.7,0.5,1,0.8c0.3,0.3,0.5,0.6,0.7,1c0.2,0.4,0.3,0.8,0.3,1.3c0,0.6-0.1,1.2-0.4,1.6
	c-0.3,0.4-0.6,0.8-1,1.1c-0.4,0.3-0.9,0.5-1.5,0.6c-0.6,0.1-1.2,0.2-1.8,0.2c-0.2,0-0.5,0-0.8-0.1c-0.3,0-0.6-0.1-0.9-0.1
	c-0.3-0.1-0.6-0.1-0.9-0.2C205.9,17.7,205.6,17.6,205.5,17.5z M219.6,18.2c-1.4,0-2.5-0.4-3.3-1.3c-0.8-0.8-1.2-2-1.2-3.3
	c0-1.5,0.4-2.7,1.3-3.5c0.9-0.8,2-1.3,3.5-1.3c1.4,0,2.5,0.4,3.3,1.2c0.8,0.8,1.2,2,1.2,3.4c0,1.4-0.4,2.6-1.3,3.5
	C222.2,17.8,221,18.2,219.6,18.2z M219.7,10.4c-0.8,0-1.4,0.3-1.9,0.8c-0.5,0.6-0.7,1.3-0.7,2.3c0,0.9,0.2,1.7,0.7,2.2
	c0.5,0.5,1.1,0.8,1.9,0.8c0.8,0,1.4-0.3,1.8-0.8c0.4-0.5,0.7-1.3,0.7-2.3c0-1-0.2-1.8-0.7-2.3C221.1,10.7,220.5,10.4,219.7,10.4z
	 M234.2,18h-2v-1.4h0c-0.6,1.1-1.5,1.6-2.8,1.6c-2.1,0-3.2-1.3-3.2-3.8V9h2v5.2c0,1.6,0.6,2.4,1.9,2.4c0.6,0,1.1-0.2,1.5-0.7
	c0.4-0.4,0.6-1,0.6-1.7V9h2V18z M242.1,10.9c-0.2-0.2-0.6-0.3-1.1-0.3c-0.6,0-1.1,0.3-1.5,0.8c-0.4,0.5-0.6,1.3-0.6,2.2V18h-2V9h2
	v1.9h0c0.2-0.6,0.5-1.1,0.9-1.5c0.4-0.4,0.9-0.5,1.4-0.5c0.4,0,0.6,0.1,0.8,0.2V10.9z M249.8,17.6c-0.7,0.4-1.6,0.6-2.6,0.6
	c-1.3,0-2.4-0.4-3.2-1.2c-0.8-0.8-1.2-1.9-1.2-3.3c0-1.5,0.4-2.7,1.3-3.6c0.9-0.9,2.1-1.4,3.5-1.4c0.8,0,1.5,0.1,2.2,0.4v1.9
	c-0.6-0.5-1.3-0.7-2-0.7c-0.9,0-1.6,0.3-2.1,0.9c-0.6,0.6-0.8,1.3-0.8,2.3c0,0.9,0.3,1.7,0.8,2.2c0.5,0.5,1.2,0.8,2.1,0.8
	c0.7,0,1.4-0.3,2.1-0.8V17.6z M259.5,14.1h-6.1c0,0.8,0.3,1.5,0.8,1.9c0.5,0.5,1.2,0.7,2,0.7c1,0,1.8-0.3,2.6-0.9v1.6
	c-0.8,0.5-1.9,0.8-3.3,0.8c-1.3,0-2.4-0.4-3.1-1.2c-0.8-0.8-1.1-2-1.1-3.5c0-1.4,0.4-2.5,1.2-3.4c0.8-0.9,1.9-1.3,3.1-1.3
	c1.2,0,2.2,0.4,2.9,1.2c0.7,0.8,1,1.9,1,3.3V14.1z M257.5,12.6c0-0.7-0.2-1.3-0.5-1.7c-0.3-0.4-0.8-0.6-1.4-0.6
	c-0.6,0-1.1,0.2-1.5,0.6c-0.4,0.4-0.7,1-0.7,1.7H257.5z"/>
<g>
	<defs>
		<rect id="SVGID_1_" width="112.7" height="24"/>
	</defs>
	<clipPath id="SVGID_2_">
		<use xlink:href="#SVGID_1_"  style="overflow:visible;"/>
	</clipPath>
	<g class="st1">
		<path class="st2" d="M107.6,10.9H104v8.3h-2.5v-8.3h-1.7v-2h1.7V7.4c0-1.1,0.4-2,1.1-2.7c0.7-0.7,1.6-1,2.7-1c0.3,0,0.6,0,0.8,0
			c0.2,0,0.4,0.1,0.6,0.1V6c-0.1,0-0.2-0.1-0.4-0.2c-0.2-0.1-0.4-0.1-0.7-0.1c-0.5,0-0.9,0.2-1.2,0.5C104.2,6.5,104,7,104,7.6v1.2
			h3.6V6.6l2.4-0.7v3.1h2.5v2h-2.5v4.8c0,0.6,0.1,1.1,0.3,1.3c0.2,0.3,0.6,0.4,1.1,0.4c0.1,0,0.3,0,0.5-0.1c0.2-0.1,0.4-0.1,0.5-0.2
			v2c-0.2,0.1-0.4,0.2-0.8,0.2s-0.7,0.1-1.1,0.1c-1,0-1.8-0.3-2.3-0.8c-0.5-0.5-0.8-1.4-0.8-2.5V10.9z M91.5,14.1
			c0,1.1,0.2,1.9,0.7,2.5c0.5,0.6,1.2,0.9,2.1,0.9c0.9,0,1.6-0.3,2-0.9c0.5-0.6,0.7-1.4,0.7-2.5c0-1.1-0.2-1.9-0.7-2.5
			c-0.5-0.6-1.2-0.8-2-0.8c-0.9,0-1.6,0.3-2.1,0.9C91.8,12.2,91.5,13,91.5,14.1z M89,14.2c0-1.7,0.5-3.1,1.4-4.1c1-1,2.3-1.5,4-1.5
			c1.6,0,2.9,0.5,3.8,1.4c0.9,1,1.4,2.3,1.4,3.9c0,1.7-0.5,3-1.4,4c-1,1-2.3,1.5-3.9,1.5c-1.6,0-2.9-0.5-3.8-1.4
			C89.5,17.1,89,15.8,89,14.2z M83.5,11.6c0,0.3,0.1,0.6,0.3,0.8c0.2,0.2,0.7,0.4,1.5,0.7c1,0.4,1.7,0.8,2,1.3
			c0.4,0.5,0.6,1.1,0.6,1.8c0,1-0.4,1.8-1.1,2.3c-0.7,0.6-1.8,0.9-3,0.9c-0.4,0-0.9-0.1-1.4-0.2c-0.5-0.1-1-0.2-1.3-0.4v-2.4
			c0.4,0.3,0.9,0.6,1.4,0.7c0.5,0.2,1,0.3,1.4,0.3c0.5,0,1-0.1,1.2-0.2c0.3-0.2,0.4-0.4,0.4-0.8c0-0.3-0.1-0.6-0.4-0.8
			c-0.3-0.2-0.8-0.5-1.5-0.8c-0.9-0.4-1.5-0.8-1.9-1.3c-0.4-0.5-0.6-1.1-0.6-1.8c0-0.9,0.4-1.7,1.1-2.3c0.7-0.6,1.7-0.9,2.9-0.9
			c0.4,0,0.8,0,1.2,0.1c0.4,0.1,0.8,0.2,1.1,0.3v2.3c-0.3-0.2-0.7-0.4-1.1-0.6c-0.4-0.2-0.9-0.2-1.3-0.2c-0.5,0-0.8,0.1-1.1,0.3
			C83.6,11,83.5,11.3,83.5,11.6z M71.8,14.1c0,1.1,0.2,1.9,0.7,2.5c0.5,0.6,1.2,0.9,2.1,0.9c0.9,0,1.6-0.3,2-0.9
			c0.5-0.6,0.7-1.4,0.7-2.5c0-1.1-0.2-1.9-0.7-2.5c-0.5-0.6-1.1-0.8-2-0.8c-0.9,0-1.6,0.3-2.1,0.9C72.1,12.2,71.8,13,71.8,14.1z
			 M69.3,14.2c0-1.7,0.5-3.1,1.4-4.1c1-1,2.3-1.5,4-1.5c1.6,0,2.9,0.5,3.8,1.4c0.9,1,1.4,2.3,1.4,3.9c0,1.7-0.5,3-1.4,4
			c-1,1-2.3,1.5-3.9,1.5c-1.6,0-2.9-0.5-3.8-1.4C69.8,17.1,69.3,15.8,69.3,14.2z M68.2,8.7c0.2,0,0.4,0,0.5,0c0.2,0,0.3,0.1,0.4,0.1
			v2.5c-0.1-0.1-0.3-0.2-0.6-0.3c-0.2-0.1-0.5-0.1-0.9-0.1c-0.6,0-1.1,0.3-1.5,0.8s-0.6,1.3-0.6,2.3v5.2h-2.4V8.9h2.4v1.6h0
			c0.2-0.6,0.6-1,1-1.3C67.1,8.9,67.6,8.7,68.2,8.7z M58.9,17.4c0.4,0,0.8-0.1,1.2-0.3c0.4-0.2,0.8-0.4,1.2-0.7v2.3
			c-0.4,0.2-0.8,0.4-1.3,0.5c-0.5,0.1-1,0.2-1.6,0.2c-1.5,0-2.8-0.5-3.7-1.4c-1-1-1.4-2.2-1.4-3.7c0-1.7,0.5-3,1.5-4.1
			c1-1.1,2.3-1.6,4.1-1.6c0.5,0,0.9,0.1,1.4,0.2c0.5,0.1,0.8,0.3,1.1,0.4v2.3c-0.4-0.3-0.8-0.5-1.1-0.6c-0.4-0.2-0.8-0.2-1.2-0.2
			c-1,0-1.7,0.3-2.3,0.9c-0.6,0.6-0.9,1.5-0.9,2.5c0,1,0.3,1.9,0.8,2.4C57.2,17.1,58,17.4,58.9,17.4z M49.1,19.2h2.4V8.9h-2.4V19.2z
			 M48.9,5.9c0-0.4,0.1-0.7,0.4-1c0.3-0.3,0.6-0.4,1-0.4c0.4,0,0.8,0.1,1.1,0.4c0.3,0.3,0.4,0.6,0.4,1c0,0.4-0.1,0.7-0.4,1
			c-0.3,0.3-0.6,0.4-1.1,0.4c-0.4,0-0.8-0.1-1-0.4C49,6.6,48.9,6.3,48.9,5.9z M46.8,4.8v14.4h-2.5V7.9h0l-4.5,11.3h-1.7L33.5,7.9h0
			v11.3h-2.3V4.8h3.6l4.1,10.7H39l4.4-10.7H46.8z"/>
		<path class="st3" d="M0,11.4h11.4V0H0V11.4z"/>
		<path class="st4" d="M12.6,11.4H24V0H12.6V11.4z"/>
		<path class="st5" d="M0,24h11.4V12.6H0V24z"/>
		<path class="st6" d="M12.6,24H24V12.6H12.6V24z"/>
	</g>
</g>
<rect x="133" class="st0" width="2" height="24"/>
</svg>
